<svg id="splitsvg" version="1.1" xmlns="http://www.w3.org/2000/svg" xmlns:xlink="http://www.w3.org/1999/xlink" width="1380" height="363"><g id="svgg"><path id="path0" d="M67.000 110.376 C 40.142 164.666,18.117 209.216,18.056 209.376 C 17.926 209.714,126.945 209.776,141.564 209.446 L 151.295 209.227 149.472 207.030 L 147.649 204.833 86.869 204.958 C 52.427 205.028,26.019 204.956,25.925 204.791 C 25.777 204.530,36.924 181.929,100.539 53.500 L 118.867 16.500 183.517 16.506 C 231.429 16.511,250.065 16.621,255.500 16.933 C 295.010 19.201,301.898 24.177,293.891 44.667 C 291.262 51.394,278.284 76.860,275.855 80.060 C 267.697 90.802,254.817 97.276,232.500 101.852 C 228.650 102.641,225.910 103.297,226.411 103.310 C 234.984 103.528,247.720 109.388,250.919 114.586 C 255.510 122.049,254.909 124.204,239.704 154.824 L 228.783 176.814 230.102 178.918 C 230.828 180.076,231.514 180.938,231.628 180.834 C 232.355 180.165,254.620 135.706,256.135 131.896 C 261.441 118.551,257.454 108.143,245.580 104.347 C 243.939 103.822,244.203 103.511,246.711 103.018 C 253.894 101.605,264.607 96.938,270.019 92.865 C 277.744 87.052,280.500 83.086,289.732 64.500 C 300.022 43.784,301.428 39.989,301.473 32.817 L 301.500 28.467 300.247 25.931 C 296.789 18.931,288.218 15.290,270.630 13.348 C 257.914 11.943,255.878 11.906,184.667 11.785 L 115.833 11.667 67.000 110.376 M141.635 54.901 L 135.615 67.167 136.002 69.607 C 136.215 70.950,136.567 72.660,136.783 73.408 L 137.177 74.767 143.838 61.214 L 150.500 47.661 194.167 47.747 C 242.451 47.842,239.952 47.729,241.667 49.910 C 243.170 51.820,242.718 53.189,236.153 66.587 C 230.232 78.673,229.151 80.140,224.311 82.658 C 218.525 85.668,221.562 85.468,178.622 85.662 L 140.744 85.833 141.754 88.093 L 142.764 90.353 180.132 90.256 L 217.500 90.159 220.167 89.409 C 230.293 86.563,233.029 83.731,240.684 68.167 C 248.081 53.129,248.632 50.281,244.900 46.387 C 241.399 42.735,243.693 42.893,192.244 42.755 L 147.654 42.635 141.635 54.901 M167.667 120.312 L 170.167 122.611 185.500 122.722 C 200.378 122.830,200.879 122.855,202.388 123.552 C 205.926 125.187,205.485 128.523,200.310 139.277 C 197.171 145.800,197.275 144.869,199.491 146.600 L 201.315 148.025 202.952 144.762 C 209.996 130.726,211.062 125.079,207.399 121.219 C 204.566 118.235,202.818 118.011,182.333 118.013 L 165.167 118.013 167.667 120.312 M90.418 158.667 L 80.711 178.333 106.891 178.333 C 130.306 178.333,133.051 178.279,132.875 177.821 C 132.767 177.539,132.440 176.489,132.149 175.488 L 131.619 173.667 110.143 173.667 C 97.478 173.667,88.667 173.542,88.667 173.364 C 88.667 173.197,91.909 166.464,95.871 158.402 L 103.076 143.744 101.666 141.372 C 100.891 140.067,100.228 139.000,100.191 139.000 C 100.155 139.000,95.757 147.850,90.418 158.667 M327.225 150.918 L 323.950 153.167 349.308 153.252 C 363.255 153.299,374.667 153.411,374.667 153.501 C 374.667 153.590,368.592 165.927,361.168 180.915 L 347.669 208.167 326.835 208.253 C 315.376 208.300,306.000 208.225,306.000 208.086 C 306.000 207.947,309.067 201.646,312.816 194.083 L 319.631 180.333 308.177 180.333 L 296.724 180.333 295.529 182.471 C 294.871 183.646,294.333 184.696,294.333 184.804 C 294.333 184.912,298.297 185.000,303.141 185.000 L 311.949 185.000 305.141 198.849 C 301.397 206.466,298.333 212.767,298.333 212.851 C 298.333 212.935,310.117 212.966,324.520 212.919 L 350.706 212.833 366.520 180.911 C 375.217 163.354,382.333 148.917,382.333 148.828 C 382.333 148.739,370.671 148.667,356.417 148.668 L 330.500 148.670 327.225 150.918 M243.667 212.476 C 243.667 212.584,244.130 213.309,244.696 214.086 C 245.794 215.594,248.333 219.822,248.333 220.141 C 248.333 220.247,247.078 220.333,245.544 220.333 C 242.521 220.333,237.876 221.033,235.077 221.909 L 233.321 222.459 236.244 223.510 C 239.453 224.664,244.709 227.220,245.966 228.238 L 246.765 228.886 244.133 230.319 C 241.530 231.737,237.189 234.642,237.394 234.830 C 237.452 234.883,238.981 235.328,240.791 235.818 C 246.803 237.447,255.511 241.190,260.167 244.146 C 261.083 244.728,262.018 245.316,262.244 245.452 C 262.470 245.588,262.118 244.454,261.460 242.933 C 260.803 241.411,260.055 239.582,259.797 238.868 L 259.329 237.570 261.581 237.759 C 262.820 237.864,264.852 238.205,266.098 238.519 C 267.767 238.939,268.732 239.011,269.765 238.793 L 271.166 238.497 270.092 237.732 C 269.216 237.108,268.890 237.036,268.326 237.337 C 267.442 237.810,265.471 237.213,264.997 236.329 C 264.146 234.738,265.163 232.000,266.605 232.000 C 267.426 232.000,266.723 230.661,264.878 228.710 C 263.805 227.575,263.684 227.347,264.333 227.675 C 266.475 228.758,267.734 230.148,269.175 233.017 C 271.188 237.025,272.315 237.773,273.849 236.118 L 274.667 235.236 274.667 236.265 C 274.667 236.831,274.517 237.387,274.333 237.500 C 273.643 237.927,274.055 238.169,275.586 238.238 C 276.455 238.277,277.526 238.397,277.965 238.506 C 278.747 238.700,278.760 238.667,278.564 237.019 C 277.822 230.755,270.166 223.541,257.833 217.487 C 252.155 214.700,243.667 211.698,243.667 212.476 M152.409 217.310 L 149.984 217.500 117.492 283.272 C 99.621 319.447,85.000 349.117,85.000 349.205 C 85.000 349.577,228.901 349.105,233.833 348.716 C 270.794 345.802,284.674 339.153,297.955 318.000 C 299.855 314.975,323.333 268.880,323.333 268.177 C 323.333 268.079,311.513 268.000,297.066 268.000 L 270.800 268.000 270.090 269.460 L 269.381 270.920 271.440 271.794 L 273.500 272.669 294.583 272.668 C 306.179 272.667,315.667 272.742,315.667 272.834 C 315.667 273.388,296.348 311.467,294.583 314.392 C 282.008 335.230,269.143 341.294,231.667 344.047 C 226.217 344.447,92.667 344.895,92.667 344.513 C 92.667 344.318,99.760 329.931,136.469 255.673 C 154.902 218.383,155.600 216.936,155.083 217.060 C 154.946 217.093,153.742 217.206,152.409 217.310 M266.067 233.400 C 265.508 233.959,265.567 235.503,266.167 236.000 C 266.588 236.350,266.667 236.285,266.667 235.582 C 266.667 235.123,266.883 234.569,267.147 234.350 C 267.678 233.909,267.488 233.000,266.864 233.000 C 266.646 233.000,266.287 233.180,266.067 233.400 M263.178 240.421 C 264.132 243.650,268.780 252.079,270.033 252.854 C 270.220 252.969,269.786 251.887,269.069 250.449 C 267.289 246.880,265.496 242.393,265.749 242.140 C 266.032 241.857,269.042 242.871,271.633 244.124 C 275.545 246.014,278.654 249.681,278.663 252.417 C 278.668 253.571,278.914 253.564,280.572 252.363 C 284.111 249.800,284.038 245.371,280.397 241.730 C 278.482 239.815,275.430 239.527,270.471 240.793 C 269.069 241.151,268.569 241.130,267.000 240.653 C 263.552 239.602,262.925 239.564,263.178 240.421 M279.198 241.723 C 279.671 242.261,279.703 242.399,279.325 242.262 C 279.045 242.161,277.958 241.900,276.908 241.682 C 274.529 241.188,274.494 241.000,276.782 241.000 C 278.192 241.000,278.696 241.151,279.198 241.723 M271.333 248.710 C 271.333 251.772,271.493 251.880,272.184 249.284 C 272.803 246.958,272.790 246.756,272.000 246.333 C 271.359 245.990,271.333 246.080,271.333 248.710 M173.332 254.536 C 168.439 257.337,159.116 260.610,155.833 260.680 C 154.221 260.714,160.698 265.329,166.360 268.180 C 175.799 272.933,188.693 274.575,198.925 272.325 C 202.874 271.456,202.873 271.462,199.242 270.418 C 189.272 267.549,181.171 261.826,177.809 255.279 L 176.497 252.724 173.332 254.536 M233.058 267.896 C 232.789 268.003,233.468 268.644,234.782 269.526 C 237.615 271.427,237.610 271.407,235.652 272.844 C 233.759 274.234,233.698 274.469,235.353 273.994 C 240.078 272.639,244.267 274.645,246.501 279.333 L 247.375 281.167 247.236 279.000 C 247.160 277.808,246.985 276.571,246.847 276.250 C 246.327 275.045,249.833 276.269,252.856 278.349 C 254.044 279.166,254.318 279.260,254.050 278.759 C 252.864 276.545,247.772 273.242,240.698 270.102 C 235.611 267.843,234.206 267.437,233.058 267.896 M254.559 269.318 L 253.617 269.921 256.632 271.170 L 259.647 272.420 258.323 273.924 C 256.675 275.796,256.660 276.113,258.250 275.425 C 261.468 274.032,265.704 274.941,268.794 277.687 C 270.516 279.218,270.660 278.962,269.433 276.552 C 268.742 275.194,268.955 275.170,272.108 276.257 C 275.338 277.370,275.606 277.016,272.886 275.226 C 270.693 273.784,267.747 272.630,263.333 271.486 C 261.408 270.987,258.875 270.148,257.704 269.622 C 256.533 269.097,255.558 268.678,255.537 268.691 C 255.517 268.704,255.076 268.987,254.559 269.318 M158.438 296.002 L 148.055 317.000 193.208 317.000 C 246.074 317.000,242.891 317.236,249.731 312.814 C 255.080 309.356,257.169 306.451,263.559 293.582 C 269.111 282.401,269.382 281.086,266.521 279.211 L 265.674 278.656 260.132 289.736 C 252.644 304.706,250.877 307.053,244.850 310.023 C 239.976 312.425,242.154 312.321,196.610 312.328 L 155.720 312.333 164.551 294.457 C 169.407 284.625,173.258 276.476,173.107 276.347 C 172.957 276.218,172.158 275.928,171.333 275.702 C 170.508 275.476,169.605 275.226,169.327 275.147 C 168.946 275.040,166.240 280.222,158.438 296.002  M -25 0 L -5 0 L -5 20 L -25 20 Z M 405 0 L 425 0 L 425 20 L 405 20 Z" stroke="none" fill="#decfab" fill-rule="evenodd" transform="translate(30,0)"></path><path id="path1" d="M107.542 9.583 C 105.821 13.021,93.574 37.733,80.324 64.500 C 67.075 91.267,52.114 121.492,47.077 131.667 C 42.039 141.842,34.730 156.617,30.833 164.500 C 26.937 172.383,19.387 187.651,14.057 198.427 L 4.365 218.021 72.353 217.927 C 117.581 217.865,140.297 217.945,140.210 218.167 C 140.139 218.350,124.612 249.796,105.707 288.047 C 86.801 326.298,71.333 357.701,71.333 357.830 C 71.333 358.218,223.336 357.781,230.333 357.373 C 265.232 355.339,281.215 350.059,294.708 336.107 C 303.281 327.241,307.671 319.448,331.523 270.750 L 336.952 259.667 301.312 259.667 L 265.672 259.667 263.631 263.750 C 262.509 265.996,261.548 267.881,261.495 267.939 C 260.701 268.818,258.045 266.148,257.024 263.446 C 255.296 258.871,250.092 249.172,246.158 243.195 L 245.518 242.224 246.509 242.466 C 252.088 243.827,263.760 249.757,265.333 252.028 C 266.510 253.727,270.510 257.667,271.059 257.667 C 271.396 257.667,274.333 251.782,274.333 251.108 C 274.333 250.031,274.977 250.815,275.289 252.273 C 275.600 253.722,275.342 257.545,274.840 258.917 C 274.418 260.070,280.589 256.938,282.987 254.782 C 287.329 250.878,287.463 244.914,283.322 239.917 C 282.476 238.897,282.266 238.316,282.179 236.751 C 281.921 232.121,277.598 226.398,269.994 220.622 C 267.994 219.103,267.724 218.783,268.205 218.500 C 275.838 213.999,281.572 207.756,287.402 197.597 L 289.833 193.360 294.083 193.347 C 296.421 193.339,298.333 193.409,298.333 193.502 C 298.333 193.594,295.258 199.818,291.500 207.333 C 287.742 214.848,284.667 221.148,284.667 221.332 C 284.667 221.554,296.638 221.667,320.250 221.667 L 355.833 221.667 375.920 181.083 C 386.968 158.762,396.006 140.388,396.004 140.252 C 396.002 140.115,381.659 139.965,364.131 139.918 L 332.262 139.833 334.714 138.167 C 340.300 134.372,346.612 126.865,349.438 120.657 C 351.413 116.317,351.379 116.255,348.464 118.871 C 344.143 122.748,336.096 127.874,335.410 127.187 C 335.341 127.119,336.056 126.111,336.997 124.948 C 341.805 119.009,346.032 109.720,347.506 101.851 C 348.276 97.745,348.178 97.766,344.286 102.532 C 341.019 106.533,333.663 114.000,332.988 114.000 C 332.825 114.000,333.593 112.612,334.696 110.917 C 345.013 95.049,348.419 77.525,343.957 63.278 C 342.421 58.376,342.147 58.238,341.903 62.247 C 340.257 89.265,323.450 108.100,281.000 130.501 C 270.949 135.805,268.999 136.986,260.984 142.624 C 260.515 142.953,260.841 142.023,262.151 139.291 C 266.459 130.301,267.893 122.389,266.480 115.403 C 265.955 112.806,263.945 107.980,263.096 107.275 C 262.728 106.969,263.430 106.480,266.567 104.856 C 276.325 99.806,284.236 92.524,289.407 83.833 C 291.135 80.928,302.956 57.171,304.914 52.667 C 315.619 28.043,309.477 13.286,286.053 7.342 C 271.876 3.745,260.895 3.341,177.252 3.337 L 110.670 3.333 107.542 9.583 M254.333 11.964 C 301.022 14.491,309.622 22.804,295.923 52.167 C 287.024 71.243,281.124 81.932,276.730 86.936 C 270.397 94.150,259.040 100.358,247.333 103.005 C 244.454 103.656,244.424 103.800,246.958 104.794 C 258.194 109.202,261.456 119.078,256.063 132.362 C 254.567 136.047,240.045 165.344,237.678 169.453 C 236.550 171.412,235.395 173.574,235.113 174.258 C 234.408 175.961,232.399 179.960,231.864 180.724 C 231.464 181.296,231.265 181.082,229.578 178.258 C 223.860 168.692,214.826 159.133,200.651 147.654 L 197.374 145.000 200.166 139.250 C 204.697 129.918,205.546 126.495,203.768 124.717 C 202.129 123.078,201.331 123.004,185.253 123.002 L 170.340 123.000 164.466 117.253 C 153.058 106.092,147.090 98.585,142.490 89.610 C 141.487 87.654,140.667 85.973,140.667 85.874 C 140.667 85.775,157.579 85.644,178.250 85.582 L 215.833 85.471 218.667 84.722 C 227.367 82.421,229.031 80.678,236.081 66.471 C 243.076 52.378,243.495 50.611,240.223 49.027 C 237.568 47.742,235.373 47.680,192.396 47.673 L 150.626 47.667 143.915 61.343 C 139.846 69.635,137.109 74.849,136.963 74.589 C 134.459 70.115,134.371 49.251,136.812 39.151 C 137.720 35.397,137.569 35.432,134.498 39.698 C 122.320 56.612,120.675 81.200,130.208 103.811 C 131.650 107.230,131.489 107.269,128.969 104.112 C 118.816 91.392,112.675 74.087,111.733 55.539 L 111.494 50.833 110.375 54.803 C 104.046 77.262,107.009 100.088,118.118 114.452 L 119.112 115.737 117.806 115.070 C 110.018 111.093,101.784 99.977,97.964 88.281 L 96.838 84.833 96.622 86.833 C 94.937 102.415,99.932 117.655,110.024 127.728 C 113.857 131.554,113.710 131.241,112.479 132.937 C 111.637 134.097,99.769 127.639,95.632 123.768 L 94.057 122.296 94.565 124.565 C 95.614 129.254,98.521 136.034,101.738 141.294 L 103.242 143.754 95.975 158.460 L 88.707 173.167 110.155 173.252 L 131.603 173.338 132.313 175.752 C 135.341 186.047,141.942 198.180,148.831 206.111 C 150.237 207.731,151.288 209.156,151.166 209.278 C 150.874 209.570,18.000 209.761,18.000 209.470 C 18.000 209.275,103.089 37.186,112.564 18.217 L 116.036 11.268 181.768 11.431 C 223.371 11.534,250.008 11.730,254.333 11.964 M227.871 64.258 C 222.884 74.226,222.340 74.860,217.333 76.542 C 215.604 77.123,213.505 77.164,180.439 77.256 L 145.379 77.354 150.604 66.677 L 155.828 56.000 193.915 56.000 L 232.003 56.000 227.871 64.258 M134.367 89.750 C 139.556 100.130,146.948 109.974,157.483 120.531 C 166.020 129.088,170.121 132.556,191.167 149.017 C 217.623 169.709,226.186 180.316,231.921 199.500 C 232.214 200.482,232.301 200.516,236.693 201.386 C 239.154 201.873,242.585 202.729,244.319 203.289 C 246.052 203.849,247.524 204.253,247.590 204.188 C 248.037 203.741,240.027 197.750,237.473 196.621 C 235.707 195.839,235.719 196.030,237.136 191.110 C 244.951 163.971,259.788 148.697,298.048 128.405 C 316.311 118.718,323.010 114.244,329.133 107.645 L 331.433 105.167 330.187 107.500 C 325.852 115.618,320.487 120.146,302.167 131.148 C 280.756 144.005,272.029 151.514,265.076 163.061 C 257.706 175.301,253.759 192.070,254.555 207.771 L 254.766 211.922 250.966 210.606 C 244.971 208.530,234.667 206.258,234.667 207.012 C 234.667 207.139,234.963 207.620,235.324 208.079 C 236.469 209.535,240.730 216.381,240.583 216.528 C 240.505 216.606,239.581 216.828,238.529 217.023 C 235.802 217.527,229.457 219.773,225.526 221.625 L 222.167 223.208 225.431 223.965 C 230.762 225.200,239.697 228.332,239.650 228.948 C 239.641 229.068,238.028 229.954,236.067 230.916 C 232.559 232.637,227.192 236.197,227.175 236.815 C 227.170 236.989,228.442 237.386,230.000 237.697 C 231.558 238.009,233.958 238.566,235.333 238.935 L 237.833 239.606 235.333 239.638 C 232.915 239.670,229.493 240.118,223.743 241.156 C 222.227 241.430,219.527 241.760,217.743 241.889 L 214.500 242.124 216.500 242.745 C 218.764 243.448,223.711 244.526,226.090 244.836 C 227.661 245.040,227.693 245.069,228.798 247.271 C 231.748 253.154,234.773 262.360,234.008 263.125 C 232.668 264.465,221.507 263.143,217.779 261.203 L 216.167 260.364 221.000 260.334 L 225.833 260.303 222.006 259.127 C 213.784 256.602,207.300 253.383,202.408 249.400 C 200.512 247.856,200.512 247.856,205.762 249.155 C 210.434 250.311,220.147 252.118,220.700 251.933 C 220.869 251.877,219.693 251.060,218.087 250.118 C 213.025 247.148,209.290 244.290,205.306 240.333 C 200.000 235.064,200.098 235.389,203.253 233.554 C 219.381 224.170,224.570 207.396,217.158 188.600 C 212.495 176.775,204.674 168.681,181.503 151.698 C 151.069 129.391,140.326 115.808,133.818 91.406 C 133.343 89.624,132.879 87.904,132.788 87.583 C 132.409 86.253,133.078 87.170,134.367 89.750 M128.833 116.365 C 141.193 132.938,156.401 146.688,178.667 161.422 C 205.157 178.951,214.772 194.866,206.448 207.407 C 199.378 218.059,185.833 218.863,171.276 209.494 C 162.487 203.837,153.372 194.293,149.229 186.408 L 147.964 184.000 150.565 185.197 C 156.600 187.972,167.472 191.973,167.877 191.567 C 167.948 191.496,166.768 190.611,165.253 189.601 C 157.250 184.263,147.490 174.983,138.111 163.793 C 134.734 159.763,126.336 148.681,126.334 148.251 C 126.334 148.114,128.546 149.608,131.250 151.571 C 144.223 160.987,163.271 172.893,168.167 174.646 L 169.167 175.004 168.333 174.303 C 150.783 159.547,133.240 134.463,125.459 113.000 L 124.674 110.833 125.420 111.811 C 125.831 112.349,127.367 114.399,128.833 116.365 M327.793 126.417 C 323.910 132.982,306.968 148.014,296.902 153.825 C 294.541 155.188,295.050 155.134,300.073 153.489 C 305.870 151.590,311.548 150.179,316.043 149.520 C 321.177 148.766,321.208 148.813,317.019 151.027 C 301.911 159.010,295.146 166.280,285.653 184.737 C 279.470 196.756,276.102 200.937,270.029 204.128 C 267.127 205.653,267.111 205.649,268.457 203.750 C 273.470 196.678,281.061 176.333,278.686 176.333 C 277.059 176.333,272.703 178.279,269.558 180.410 C 268.489 181.134,267.526 181.637,267.417 181.528 C 267.059 181.170,269.657 173.880,271.472 170.153 C 276.955 158.888,283.303 153.416,306.167 140.243 C 315.158 135.062,322.837 130.143,326.000 127.536 C 327.989 125.897,328.165 125.787,327.793 126.417 M194.649 131.583 C 194.640 131.721,193.768 133.537,192.712 135.619 L 190.792 139.404 185.896 135.510 C 183.203 133.369,181.000 131.553,181.000 131.475 C 181.000 131.397,184.075 131.333,187.833 131.333 C 191.592 131.333,194.659 131.446,194.649 131.583 M382.572 148.750 C 382.480 148.979,375.238 163.604,366.479 181.250 L 350.553 213.333 324.277 213.333 C 309.824 213.333,298.000 213.282,298.000 213.220 C 298.000 213.157,301.075 206.864,304.833 199.235 C 308.592 191.606,311.667 185.285,311.667 185.188 C 311.667 185.090,307.705 184.971,302.863 184.922 L 294.059 184.833 296.831 180.000 C 303.582 168.227,307.791 163.999,323.167 153.546 L 330.833 148.334 356.786 148.334 C 377.414 148.333,382.704 148.419,382.572 148.750 M110.196 153.583 C 110.898 154.454,113.643 157.379,116.296 160.083 L 121.120 165.000 111.727 165.000 C 106.560 165.000,102.330 164.887,102.325 164.750 C 102.310 164.311,108.461 152.000,108.695 152.000 C 108.819 152.000,109.494 152.712,110.196 153.583 M250.094 214.056 C 264.829 219.133,277.819 229.549,278.577 236.896 C 278.769 238.750,278.762 238.769,277.969 238.557 C 277.528 238.439,276.371 238.340,275.398 238.338 C 273.637 238.333,273.631 238.330,274.148 237.592 C 275.149 236.163,274.786 235.214,273.667 236.333 C 272.243 237.757,270.699 236.635,269.066 232.986 C 268.092 230.810,266.667 229.168,264.639 227.884 C 263.705 227.292,263.764 227.408,265.097 228.780 C 266.772 230.503,267.363 231.712,266.647 231.951 C 263.397 233.034,264.389 237.573,267.804 237.245 C 269.218 237.109,269.647 237.205,270.384 237.825 L 271.269 238.569 269.828 238.899 C 268.701 239.157,267.874 239.098,266.037 238.632 C 264.745 238.304,262.761 237.931,261.629 237.803 L 259.570 237.570 259.797 238.474 C 259.922 238.971,260.614 240.747,261.336 242.421 C 262.919 246.094,263.026 245.959,259.991 244.123 C 254.611 240.870,244.998 236.803,240.000 235.665 C 238.992 235.435,237.965 235.141,237.719 235.010 C 237.099 234.681,239.163 233.092,243.356 230.669 L 246.702 228.736 244.701 227.521 C 242.161 225.978,238.483 224.297,235.535 223.332 C 232.883 222.465,232.949 222.374,237.006 221.317 C 238.886 220.827,241.252 220.524,244.068 220.413 L 248.302 220.246 247.608 218.873 C 247.226 218.118,246.108 216.326,245.124 214.890 C 244.139 213.455,243.333 212.227,243.333 212.161 C 243.333 211.998,247.562 213.183,250.094 214.056 M162.408 219.417 C 170.829 225.990,180.433 230.847,189.250 232.991 C 192.912 233.882,192.879 233.778,190.250 236.184 C 180.750 244.878,166.708 251.953,148.220 257.361 L 146.606 257.833 148.012 259.939 C 152.333 266.410,161.154 272.555,169.833 275.140 C 171.483 275.631,173.014 276.094,173.236 276.168 C 173.491 276.252,170.398 282.874,164.819 294.186 C 159.969 304.022,156.000 312.133,156.000 312.210 C 156.000 312.750,238.964 312.118,240.822 311.564 C 249.263 309.047,252.025 305.922,259.881 290.000 C 266.253 277.084,265.432 278.436,266.485 279.126 C 268.523 280.462,269.021 283.084,267.732 285.690 C 266.846 287.481,266.921 287.554,268.718 286.652 C 271.450 285.280,272.604 283.723,272.962 280.922 L 273.167 279.317 274.460 280.385 C 275.748 281.449,277.324 284.248,277.330 285.483 C 277.337 286.921,277.987 285.380,278.344 283.077 C 279.004 278.827,276.435 273.000,273.902 273.000 C 273.823 273.000,272.762 272.548,271.543 271.995 L 269.327 270.990 270.169 269.329 L 271.011 267.667 297.172 267.667 C 317.881 267.667,323.333 267.754,323.330 268.083 C 323.323 268.939,301.313 312.670,298.792 316.839 C 283.978 341.328,267.546 348.004,218.814 349.333 C 205.095 349.707,85.101 349.782,84.905 349.417 C 84.831 349.279,99.417 319.542,117.317 283.333 L 149.864 217.500 151.015 217.294 C 151.649 217.181,153.775 217.068,155.740 217.044 L 159.313 217.000 162.408 219.417 M267.667 233.651 C 267.667 233.987,267.425 234.355,267.129 234.468 C 266.765 234.608,266.642 234.943,266.749 235.504 C 266.951 236.560,266.503 236.569,265.817 235.522 C 265.227 234.621,265.533 233.628,266.580 233.042 C 267.291 232.644,267.667 232.854,267.667 233.651 M268.333 235.520 C 268.333 235.784,268.108 236.000,267.833 236.000 C 267.331 236.000,267.148 235.296,267.546 234.898 C 267.858 234.587,268.333 234.963,268.333 235.520 M266.374 240.365 C 268.849 241.032,269.061 241.039,271.296 240.531 C 277.501 239.120,280.753 240.369,282.700 244.910 C 284.023 247.997,283.317 250.335,280.387 252.569 C 278.567 253.957,278.454 253.945,278.392 252.365 C 278.241 248.521,274.837 245.210,268.781 243.019 C 267.202 242.447,265.849 242.040,265.775 242.114 C 265.603 242.286,267.207 246.302,268.977 250.132 C 269.731 251.763,270.305 253.139,270.253 253.191 C 269.765 253.680,264.839 245.223,263.395 241.417 C 262.602 239.329,262.573 239.339,266.374 240.365 M277.167 241.523 C 278.083 241.778,278.983 241.932,279.167 241.866 C 279.739 241.660,277.678 240.998,276.562 241.030 C 275.624 241.056,275.695 241.114,277.167 241.523 M272.565 246.884 C 272.808 247.517,272.111 250.721,271.569 251.460 C 271.244 251.904,271.167 251.405,271.167 248.871 C 271.167 245.759,271.793 244.870,272.565 246.884 M177.316 254.205 C 180.584 261.592,191.754 269.340,201.347 270.874 C 203.249 271.178,202.987 271.471,200.250 272.100 C 184.830 275.643,167.981 271.688,156.044 261.723 L 154.921 260.786 157.877 260.209 C 163.347 259.140,171.047 256.097,175.167 253.376 C 176.541 252.468,176.549 252.472,177.316 254.205 M242.833 253.285 L 247.833 253.500 249.077 255.333 C 250.368 257.236,253.107 262.569,253.512 263.968 L 253.744 264.769 251.289 264.578 C 248.158 264.334,244.017 263.018,241.667 261.519 L 239.833 260.350 243.500 260.331 L 247.167 260.311 243.833 258.572 C 240.377 256.770,238.332 255.428,236.333 253.651 L 235.167 252.614 236.500 252.842 C 237.233 252.968,240.083 253.167,242.833 253.285 M215.974 265.347 C 218.889 266.759,222.412 267.896,225.568 268.444 C 228.538 268.959,228.520 268.951,230.739 270.611 L 232.312 271.788 231.016 272.897 C 228.679 274.897,227.989 278.957,229.410 282.333 L 229.902 283.500 230.469 282.167 C 232.081 278.374,236.456 276.465,240.370 277.846 C 245.211 279.554,245.709 284.485,241.562 289.656 C 240.008 291.594,240.158 291.649,243.133 290.236 C 247.532 288.147,250.000 285.150,250.000 281.895 C 250.000 279.989,250.164 279.974,252.120 281.695 C 254.052 283.396,254.205 282.578,250.550 290.092 C 246.994 297.403,245.321 299.841,242.626 301.641 C 238.890 304.136,240.557 304.039,202.955 303.930 L 169.410 303.833 175.720 290.994 L 182.031 278.155 187.766 278.272 C 194.181 278.403,198.489 277.911,202.737 276.562 C 205.723 275.614,205.708 275.628,210.393 269.083 C 212.264 266.471,213.814 264.333,213.838 264.333 C 213.862 264.333,214.823 264.789,215.974 265.347 M239.955 269.659 C 246.675 272.676,249.536 274.306,251.882 276.454 C 254.666 279.002,255.350 280.169,253.188 278.682 C 251.702 277.659,248.916 276.284,247.473 275.861 C 246.788 275.660,246.786 275.683,247.264 277.642 C 247.550 278.809,247.648 280.012,247.503 280.563 L 247.257 281.500 246.829 280.297 C 244.931 274.965,240.757 272.730,235.325 274.139 L 233.505 274.611 234.669 273.555 C 235.310 272.975,236.208 272.257,236.665 271.961 L 237.496 271.421 234.933 269.794 C 230.129 266.745,233.277 266.660,239.955 269.659 M257.051 269.317 C 257.859 269.674,260.890 270.653,263.786 271.492 C 269.411 273.121,272.255 274.366,274.152 276.032 C 275.831 277.506,275.623 277.706,273.357 276.791 C 270.364 275.582,269.152 275.396,269.489 276.197 C 270.895 279.538,270.803 279.882,268.989 278.068 C 266.131 275.210,261.987 274.211,258.333 275.500 C 257.554 275.775,256.842 276.000,256.752 276.000 C 256.496 276.000,258.410 273.533,258.898 273.233 C 259.716 272.732,259.331 272.424,256.302 271.154 L 253.271 269.883 254.386 269.289 C 254.999 268.962,255.518 268.688,255.541 268.681 C 255.563 268.673,256.243 268.959,257.051 269.317  M -25 0 L -5 0 L -5 20 L -25 20 Z M 405 0 L 425 0 L 425 20 L 405 20 Z" stroke="none" fill="#1c1c1c" fill-rule="evenodd" transform="translate(490,0)"></path><path id="path2" d="M144.917 11.583 C 160.913 11.631,187.088 11.631,203.083 11.583 C 219.079 11.535,205.992 11.496,174.000 11.496 C 142.008 11.496,128.921 11.535,144.917 11.583 M246.583 11.908 C 247.179 11.982,248.154 11.982,248.750 11.908 C 249.346 11.834,248.858 11.773,247.667 11.773 C 246.475 11.773,245.987 11.834,246.583 11.908 M255.583 12.235 C 255.996 12.315,256.671 12.315,257.083 12.235 C 257.496 12.156,257.158 12.091,256.333 12.091 C 255.508 12.091,255.171 12.156,255.583 12.235 M105.223 44.057 C 97.653 59.334,82.956 89.008,72.563 110.000 C 62.169 130.992,47.384 160.842,39.706 176.333 C 32.029 191.825,25.868 204.631,26.015 204.791 C 26.323 205.126,146.852 204.925,147.189 204.589 C 147.309 204.469,146.882 203.724,146.240 202.935 C 142.405 198.223,136.685 188.022,134.222 181.500 L 133.089 178.500 106.899 178.415 L 80.710 178.329 90.464 158.577 L 100.217 138.824 98.816 135.995 C 97.058 132.444,95.226 127.520,94.565 124.565 L 94.057 122.296 95.632 123.768 C 99.769 127.639,111.637 134.097,112.479 132.937 C 113.710 131.241,113.857 131.554,110.024 127.728 C 99.932 117.655,94.937 102.415,96.622 86.833 L 96.838 84.833 97.964 88.281 C 101.784 99.977,110.018 111.093,117.806 115.070 L 119.112 115.737 118.118 114.452 C 107.009 100.088,104.046 77.262,110.375 54.803 L 111.494 50.833 111.733 55.539 C 112.675 74.087,118.816 91.392,128.969 104.112 C 131.489 107.269,131.650 107.230,130.208 103.811 C 120.675 81.200,122.320 56.612,134.498 39.698 C 137.569 35.432,137.720 35.397,136.812 39.151 C 135.177 45.915,134.462 58.006,135.264 65.310 L 135.500 67.453 141.576 55.044 L 147.652 42.635 192.243 42.755 C 243.694 42.893,241.399 42.735,244.900 46.387 C 248.632 50.281,248.081 53.129,240.684 68.167 C 233.029 83.731,230.293 86.563,220.167 89.409 L 217.500 90.159 180.250 90.256 C 159.762 90.309,143.000 90.459,143.000 90.589 C 143.000 92.772,152.277 104.832,160.295 113.072 L 165.090 118.000 182.295 118.006 C 202.823 118.013,204.567 118.236,207.399 121.219 C 211.065 125.082,209.997 130.723,202.937 144.792 C 202.028 146.603,201.408 148.196,201.559 148.332 C 201.710 148.468,203.965 150.397,206.571 152.620 C 214.863 159.691,222.307 167.527,226.670 173.776 C 227.652 175.182,228.585 176.333,228.744 176.333 C 229.138 176.333,250.706 132.728,251.768 129.786 C 255.808 118.585,251.083 110.366,238.074 105.969 C 235.106 104.966,228.024 103.351,226.411 103.310 C 225.910 103.297,228.650 102.641,232.500 101.852 C 254.817 97.276,267.697 90.802,275.855 80.060 C 278.284 76.860,291.262 51.394,293.891 44.667 C 301.847 24.307,295.263 19.427,256.500 16.954 C 252.902 16.725,226.772 16.536,184.909 16.437 L 118.985 16.280 105.223 44.057 M132.788 87.583 C 132.879 87.904,133.343 89.624,133.818 91.406 C 140.326 115.808,151.069 129.391,181.503 151.698 C 204.674 168.681,212.495 176.775,217.158 188.600 C 224.570 207.396,219.381 224.170,203.253 233.554 C 200.098 235.389,200.000 235.064,205.306 240.333 C 209.290 244.290,213.025 247.148,218.087 250.118 C 219.693 251.060,220.869 251.877,220.700 251.933 C 220.147 252.118,210.434 250.311,205.762 249.155 C 200.512 247.856,200.512 247.856,202.408 249.400 C 207.300 253.383,213.784 256.602,222.006 259.127 L 225.833 260.303 221.000 260.334 L 216.167 260.364 217.779 261.203 C 221.507 263.143,232.668 264.465,234.008 263.125 C 234.773 262.360,231.748 253.154,228.798 247.271 C 227.693 245.069,227.661 245.040,226.090 244.836 C 223.711 244.526,218.764 243.448,216.500 242.745 L 214.500 242.124 217.743 241.889 C 219.527 241.760,222.227 241.430,223.743 241.156 C 229.493 240.118,232.915 239.670,235.333 239.638 L 237.833 239.606 235.333 238.935 C 233.958 238.566,231.558 238.009,230.000 237.697 C 228.442 237.386,227.170 236.989,227.175 236.815 C 227.192 236.197,232.559 232.637,236.067 230.916 C 238.028 229.954,239.641 229.068,239.650 228.948 C 239.697 228.332,230.762 225.200,225.431 223.965 L 222.167 223.208 225.526 221.625 C 229.457 219.773,235.802 217.527,238.529 217.023 C 239.581 216.828,240.505 216.606,240.583 216.528 C 240.730 216.381,236.469 209.535,235.324 208.079 C 234.963 207.620,234.667 207.139,234.667 207.012 C 234.667 206.258,244.971 208.530,250.966 210.606 L 254.766 211.922 254.555 207.771 C 253.759 192.070,257.706 175.301,265.076 163.061 C 272.029 151.514,280.756 144.005,302.167 131.148 C 320.487 120.146,325.852 115.618,330.187 107.500 L 331.433 105.167 329.133 107.645 C 323.010 114.244,316.311 118.718,298.048 128.405 C 259.788 148.697,244.951 163.971,237.136 191.110 C 235.719 196.030,235.707 195.839,237.473 196.621 C 240.027 197.750,248.037 203.741,247.590 204.188 C 247.524 204.253,246.052 203.849,244.319 203.289 C 242.585 202.729,239.154 201.873,236.693 201.386 C 232.301 200.516,232.214 200.482,231.921 199.500 C 226.186 180.316,217.623 169.709,191.167 149.017 C 170.121 132.556,166.020 129.088,157.483 120.531 C 146.948 109.974,139.556 100.130,134.367 89.750 C 133.078 87.170,132.409 86.253,132.788 87.583 M274.821 88.750 L 273.167 90.500 274.917 88.846 C 276.543 87.309,276.820 87.000,276.571 87.000 C 276.518 87.000,275.731 87.787,274.821 88.750 M254.000 109.500 C 254.622 110.142,255.206 110.667,255.297 110.667 C 255.389 110.667,254.955 110.142,254.333 109.500 C 253.711 108.858,253.128 108.333,253.036 108.333 C 252.944 108.333,253.378 108.858,254.000 109.500 M125.459 113.000 C 133.240 134.463,150.783 159.547,168.333 174.303 L 169.167 175.004 168.167 174.646 C 163.271 172.893,144.223 160.987,131.250 151.571 C 128.546 149.608,126.334 148.114,126.334 148.251 C 126.336 148.681,134.734 159.763,138.111 163.793 C 147.490 174.983,157.250 184.263,165.253 189.601 C 166.768 190.611,167.948 191.496,167.877 191.567 C 167.472 191.973,156.600 187.972,150.565 185.197 L 147.964 184.000 149.229 186.408 C 153.372 194.293,162.487 203.837,171.276 209.494 C 185.833 218.863,199.378 218.059,206.448 207.407 C 214.772 194.866,205.157 178.951,178.667 161.422 C 156.401 146.688,141.193 132.938,128.833 116.365 C 127.367 114.399,125.831 112.349,125.420 111.811 L 124.674 110.833 125.459 113.000 M177.417 122.916 C 181.404 122.969,187.929 122.969,191.917 122.916 C 195.904 122.863,192.642 122.820,184.667 122.820 C 176.692 122.820,173.429 122.863,177.417 122.916 M326.000 127.536 C 322.837 130.143,315.158 135.062,306.167 140.243 C 283.303 153.416,276.955 158.888,271.472 170.153 C 269.657 173.880,267.059 181.170,267.417 181.528 C 267.526 181.637,268.489 181.134,269.558 180.410 C 272.703 178.279,277.059 176.333,278.686 176.333 C 281.061 176.333,273.470 196.678,268.457 203.750 C 267.111 205.649,267.127 205.653,270.029 204.128 C 276.102 200.937,279.470 196.756,285.653 184.737 C 295.146 166.280,301.911 159.010,317.019 151.027 C 321.208 148.813,321.177 148.766,316.043 149.520 C 311.548 150.179,305.870 151.590,300.073 153.489 C 295.050 155.134,294.541 155.188,296.902 153.825 C 305.865 148.651,319.160 137.281,325.540 129.333 C 328.628 125.486,328.666 125.340,326.000 127.536 M339.833 148.577 C 364.181 148.807,382.667 148.810,382.667 148.583 C 382.667 148.446,370.929 148.368,356.583 148.411 C 342.238 148.454,334.700 148.529,339.833 148.577 M318.915 156.448 C 308.704 163.504,303.784 168.469,298.638 176.908 L 296.651 180.167 308.139 180.254 L 319.627 180.342 312.814 194.088 C 309.066 201.648,306.000 207.947,306.000 208.086 C 306.000 208.225,315.376 208.300,326.835 208.253 L 347.669 208.167 361.168 180.915 C 368.592 165.927,374.667 153.591,374.667 153.503 C 374.667 153.414,363.191 153.302,349.165 153.254 L 323.664 153.167 318.915 156.448 M99.441 173.583 C 105.458 173.634,115.208 173.634,121.108 173.583 C 127.007 173.532,122.083 173.490,110.167 173.491 C 98.250 173.491,93.423 173.532,99.441 173.583 M140.096 209.580 C 141.156 209.646,142.806 209.646,143.762 209.579 C 144.718 209.512,143.850 209.457,141.833 209.458 C 139.817 209.459,139.035 209.514,140.096 209.580 M298.000 213.083 C 298.000 213.221,309.887 213.298,324.417 213.255 C 338.946 213.213,346.633 213.138,341.500 213.089 C 317.187 212.859,298.000 212.857,298.000 213.083 M152.583 217.235 C 152.996 217.315,153.671 217.315,154.083 217.235 C 154.496 217.156,154.158 217.091,153.333 217.091 C 152.508 217.091,152.171 217.156,152.583 217.235 M140.755 246.932 C 132.645 263.378,118.508 292.010,109.338 310.559 C 100.169 329.108,92.667 344.380,92.667 344.497 C 92.667 344.890,226.078 344.457,231.667 344.047 C 269.143 341.294,282.008 335.230,294.583 314.392 C 296.348 311.467,315.667 273.388,315.667 272.834 C 315.667 272.742,306.104 272.677,294.417 272.690 C 282.729 272.703,273.392 272.815,273.667 272.940 C 277.276 274.576,279.062 278.447,278.344 283.077 C 277.987 285.380,277.337 286.921,277.330 285.483 C 277.324 284.248,275.748 281.449,274.460 280.385 L 273.167 279.317 272.962 280.922 C 272.724 282.779,272.056 284.203,270.948 285.212 C 269.964 286.109,267.398 287.412,267.045 287.194 C 266.899 287.104,265.067 290.511,262.974 294.765 C 256.529 307.864,253.035 311.928,245.499 315.098 C 240.831 317.061,242.496 317.000,193.207 317.000 L 148.054 317.000 158.360 296.161 C 168.846 274.960,168.980 274.668,168.250 274.665 C 164.247 274.650,151.775 265.574,148.012 259.939 L 146.606 257.833 148.220 257.361 C 166.708 251.953,180.750 244.878,190.250 236.184 C 192.879 233.778,192.912 233.882,189.250 232.991 C 180.433 230.847,170.829 225.990,162.408 219.417 C 159.375 217.049,159.274 217.000,157.406 217.016 L 155.500 217.031 140.755 246.932 M267.546 234.898 C 267.148 235.296,267.331 236.000,267.833 236.000 C 268.108 236.000,268.333 235.784,268.333 235.520 C 268.333 234.963,267.858 234.587,267.546 234.898 M236.333 253.651 C 238.332 255.428,240.377 256.770,243.833 258.572 L 247.167 260.311 243.500 260.331 L 239.833 260.350 241.667 261.519 C 244.017 263.018,248.158 264.334,251.289 264.578 L 253.744 264.769 253.512 263.968 C 253.107 262.569,250.368 257.236,249.077 255.333 L 247.833 253.500 242.833 253.285 C 240.083 253.167,237.233 252.968,236.500 252.842 L 235.167 252.614 236.333 253.651 M283.892 267.917 C 291.074 267.967,302.924 267.967,310.225 267.917 C 317.526 267.866,311.650 267.825,297.167 267.825 C 282.683 267.825,276.710 267.866,283.892 267.917 M187.923 273.575 C 188.522 273.649,189.422 273.648,189.923 273.572 C 190.424 273.495,189.933 273.435,188.833 273.437 C 187.733 273.438,187.324 273.501,187.923 273.575 M261.254 274.902 C 261.669 274.982,262.269 274.979,262.587 274.896 C 262.906 274.812,262.567 274.747,261.833 274.751 C 261.100 274.754,260.839 274.823,261.254 274.902 M247.411 279.667 C 247.411 280.308,247.479 280.571,247.563 280.250 C 247.647 279.929,247.647 279.404,247.563 279.083 C 247.479 278.762,247.411 279.025,247.411 279.667 M288.151 330.750 L 286.833 332.167 288.250 330.849 C 289.567 329.624,289.820 329.333,289.568 329.333 C 289.513 329.333,288.876 329.971,288.151 330.750 M230.921 348.902 C 231.335 348.982,231.935 348.979,232.254 348.896 C 232.573 348.812,232.233 348.747,231.500 348.751 C 230.767 348.754,230.506 348.823,230.921 348.902 M84.951 349.418 C 85.089 349.556,113.619 349.631,148.351 349.584 L 211.500 349.500 148.100 349.333 C 113.230 349.242,84.813 349.280,84.951 349.418 M222.923 349.242 C 223.522 349.316,224.422 349.314,224.923 349.238 C 225.424 349.162,224.933 349.101,223.833 349.103 C 222.733 349.105,222.324 349.167,222.923 349.242  M -25 0 L -5 0 L -5 20 L -25 20 Z M 405 0 L 425 0 L 425 20 L 405 20 Z" stroke="none" fill="#8b1c2c" fill-rule="evenodd" transform="translate(950,0)"></path></g></svg>